<svg>
		<g
			transform="translate(0.000000,160.000000) scale(0.100000,-0.100000)"
			fill="#1e6ce8"
			stroke="none"
		>
			<path
				d="M0 800 l0 -800 2440 0 2440 0 0 800 0 800 -2440 0 -2440 0 0 -800z
m815 398 c61 -13 151 -59 204 -105 94 -80 136 -247 91 -365 -23 -62 -90 -144
-146 -179 l-36 -22 32 -20 c18 -11 60 -30 93 -42 l61 -23 -42 -7 c-51 -8 -108
0 -187 29 -41 15 -70 20 -90 15 -53 -12 -158 -9 -223 6 -130 31 -235 108 -288
212 -23 47 -30 73 -32 138 -3 76 -1 84 35 155 91 178 294 259 528 208z m776
-209 c44 -15 78 -46 96 -87 17 -41 11 -52 -29 -52 -23 0 -40 9 -64 35 -25 28
-39 35 -69 35 -48 0 -71 -13 -91 -53 -22 -41 -22 -128 0 -161 27 -42 61 -59
101 -52 39 8 75 40 75 68 0 15 8 18 45 18 49 0 53 -7 34 -57 -13 -35 -46 -71
-82 -90 -37 -19 -124 -19 -168 0 -112 48 -151 207 -78 322 47 74 140 104 230
74z m807 -31 c-3 -30 -6 -33 -40 -36 -37 -3 -38 -3 -38 32 0 35 1 36 41 36 39
0 40 -1 37 -32z m1331 21 c60 -21 79 -111 31 -154 -19 -17 -18 -18 10 -42 37
-30 47 -78 27 -126 -24 -56 -62 -70 -204 -75 l-123 -4 0 206 0 206 114 0 c62
0 127 -5 145 -11z m-1449 -129 c0 -37 -2 -40 -27 -40 -56 -1 -68 -21 -73 -128
l-5 -97 -40 0 -40 0 -3 148 -3 147 41 0 c37 0 40 -2 40 -27 1 -25 2 -26 11
-10 11 18 62 46 87 47 7 0 12 -14 12 -40z m415 14 c82 -54 85 -190 6 -257 -63
-52 -189 -30 -224 40 -47 92 -18 190 68 229 37 18 114 11 150 -12z m620 16
c40 -9 85 -49 85 -76 0 -22 -62 -18 -83 6 -21 24 -75 27 -84 4 -9 -23 6 -32
82 -53 92 -26 114 -59 83 -126 -17 -37 -57 -55 -123 -55 -81 0 -135 34 -135
84 0 26 76 22 83 -4 6 -24 51 -36 83 -21 51 23 20 53 -84 81 -59 16 -86 44
-78 83 8 38 23 57 61 73 36 16 57 17 110 4z m763 -17 c28 -17 61 -86 62 -125
l0 -28 -105 0 c-87 0 -105 -3 -105 -15 0 -25 38 -55 70 -55 17 0 39 9 50 20
17 17 80 29 80 16 0 -23 -26 -60 -52 -76 -66 -40 -168 -19 -206 43 -26 41 -30
123 -7 167 16 31 58 64 90 73 30 8 97 -3 123 -20z m296 17 c68 -15 74 -29 78
-172 l4 -128 -38 0 c-27 0 -38 4 -38 15 0 14 -3 14 -30 0 -45 -23 -114 -20
-145 8 -21 17 -27 32 -27 62 0 51 34 81 99 90 61 8 93 21 93 38 0 38 -71 52
-92 17 -10 -15 -24 -20 -55 -20 -42 0 -42 0 -32 28 19 55 99 82 183 62z m334
-33 c3 -36 2 -37 -30 -37 -61 -1 -72 -19 -78 -128 l-5 -97 -40 0 -40 0 0 145
0 145 38 3 c35 3 37 1 37 -25 1 -25 2 -26 14 -11 17 23 67 49 86 45 9 -1 16
-16 18 -40z m-2868 -71 c0 -82 3 -108 16 -120 21 -22 50 -20 74 4 17 17 20 33
20 120 l0 100 40 0 40 0 0 -150 0 -150 -35 0 c-23 0 -38 6 -42 15 -5 14 -8 14
-29 0 -32 -21 -106 -19 -134 3 -13 10 -25 36 -31 62 -10 54 -12 204 -2 213 3
4 24 7 45 7 l38 0 0 -104z m558 -43 l-3 -148 -37 -3 -38 -3 0 150 0 151 40 0
41 0 -3 -147z m494 42 c4 -124 15 -144 70 -129 40 12 46 30 47 147 l1 87 40 0
41 0 -3 -147 -3 -148 -33 -3 c-25 -3 -34 1 -40 18 l-8 21 -18 -20 c-14 -15
-31 -21 -63 -21 -91 0 -113 37 -113 195 l0 105 39 0 39 0 4 -105z"
			/>
			<path
				d="M615 1056 c-22 -7 -55 -20 -73 -30 -32 -17 -33 -19 -27 -59 4 -23 9
-44 11 -46 3 -3 18 3 35 13 71 42 129 39 150 -7 9 -20 5 -38 -27 -110 -20 -48
-35 -89 -33 -91 2 -2 28 -6 58 -7 l54 -4 53 84 c60 94 65 121 35 187 -33 72
-134 102 -236 70z"
			/>
			<path
				d="M319 967 c-20 -35 -24 -56 -24 -122 0 -70 4 -87 29 -133 16 -28 31
-50 34 -48 2 3 -4 28 -13 56 -19 57 -22 194 -6 249 15 48 9 48 -20 -2z"
			/>
			<path
				d="M1058 923 c-2 -4 -2 -36 0 -70 3 -47 8 -63 18 -63 12 0 14 14 12 67
-2 39 -8 68 -15 70 -6 2 -13 0 -15 -4z"
			/>
			<path
				d="M640 636 l0 -56 50 0 c36 0 50 4 50 14 0 7 3 27 6 44 7 33 4 35 -68
48 l-38 6 0 -56z"
			/>
			<path
				d="M3560 875 l0 -45 58 0 c63 0 82 11 82 47 0 30 -28 43 -89 43 l-51 0
0 -45z"
			/>
			<path
				d="M3560 710 l0 -60 38 0 c52 0 109 18 116 36 19 50 -26 84 -110 84
l-44 0 0 -60z"
			/>
			<path
				d="M2556 798 c-24 -35 -21 -113 6 -138 52 -48 113 -11 113 70 0 60 -24
90 -71 90 -23 0 -38 -7 -48 -22z"
			/>
			<path
				d="M3970 818 c-26 -10 -40 -25 -40 -45 0 -9 19 -13 60 -13 52 0 60 2 60
19 0 33 -41 54 -80 39z"
			/>
			<path
				d="M4300 707 c-63 -22 -45 -86 20 -72 32 7 50 30 50 64 0 24 -17 26 -70
8z"
			/>
		</g>
	</svg>
